<svg width="512" height="448" viewBox="0 0 512 448" fill="none" xmlns="http://www.w3.org/2000/svg">
<path d="M448 48C456.8 48 464 55.2 464 64V383.8L459 377.3L323 201.3C318.5 195.4 311.4 192 304 192C296.6 192 289.6 195.4 285 201.3L202 308.7L171.5 266C167 259.7 159.8 256 152 256C144.2 256 137 259.7 132.5 266.1L52.5 378.1L48 384.3V384V64C48 55.2 55.2 48 64 48H448ZM64 0C28.7 0 0 28.7 0 64V384C0 419.3 28.7 448 64 448H448C483.3 448 512 419.3 512 384V64C512 28.7 483.3 0 448 0H64ZM144 192C150.303 192 156.545 190.758 162.369 188.346C168.192 185.934 173.484 182.398 177.941 177.941C182.398 173.484 185.934 168.192 188.346 162.369C190.758 156.545 192 150.303 192 144C192 137.697 190.758 131.455 188.346 125.631C185.934 119.808 182.398 114.516 177.941 110.059C173.484 105.602 168.192 102.066 162.369 99.6538C156.545 97.2416 150.303 96 144 96C137.697 96 131.455 97.2416 125.631 99.6538C119.808 102.066 114.516 105.602 110.059 110.059C105.602 114.516 102.066 119.808 99.6538 125.631C97.2416 131.455 96 137.697 96 144C96 150.303 97.2416 156.545 99.6538 162.369C102.066 168.192 105.602 173.484 110.059 177.941C114.516 182.398 119.808 185.934 125.631 188.346C131.455 190.758 137.697 192 144 192Z" fill="#333333"/>
</svg>
